<?xml version="1.0" encoding="utf-8"?>
<!DOCTYPE svg PUBLIC "-//W3C//DTD SVG 1.0//EN" "http://www.w3.org/TR/2001/REC-SVG-20010904/DTD/svg10.dtd">
<svg version="1.0" xmlns="http://www.w3.org/2000/svg" width="2088px" height="1790px" viewBox="0 0 2088 1790" preserveAspectRatio="xMidYMid meet">
 <g fill="#010000">
  <path d="M1062.8 1789.3 c8.1 -0.3 10.2 -0.7 10.2 -1.8 0 -1.2 1.9 -1.5 10.5 -1.5 l10.5 0 0 -3.5 c0 -3.3 0.2 -3.5 3.5 -3.5 3.3 0 3.5 0.2 3.5 3.5 0 3.3 -0.2 3.5 -3.5 3.5 -2.8 0 -3.5 0.4 -3.5 2 0 1.9 -0.6 2 -20.7 1.8 -11.5 -0.1 -16.2 -0.4 -10.5 -0.5z"/>
  <path d="M1087 1767 c0 -0.6 -3 -1 -7 -1 l-7 0 0 -3.5 0 -3.5 10.5 0 c9.7 0 10.5 -0.1 10.5 -1.9 0 -1.1 0.7 -2.7 1.6 -3.5 0.8 -0.9 2.4 -1.6 3.5 -1.6 1.5 0 1.9 0.7 1.9 3.5 0 3.3 -0.2 3.5 -3.5 3.5 -3.5 0 -3.5 0 -3.5 4.5 0 4.5 0 4.5 -3.5 4.5 -1.9 0 -3.5 -0.4 -3.5 -1z"/>
  <path d="M1053 1754 c0 -1.6 0.7 -2 3 -2 2.3 0 3 0.4 3 2 0 1.6 -0.7 2 -3 2 -2.3 0 -3 -0.4 -3 -2z"/>
  <path d="M730 1741.5 l0 -3.5 -6.5 0 -6.5 0 0 -6.5 0 -6.5 -3.5 0 -3.5 0 0 -17.5 0 -17.5 3.5 0 3.5 0 0 -6.5 0 -6.5 6.5 0 6.5 0 0 -3.5 0 -3.5 14 0 14 0 0 3.5 c0 3.3 0.2 3.5 3.5 3.5 3.2 0 3.5 0.2 3.5 3 0 2.8 -0.3 3 -3.5 3 -3.3 0 -3.5 0.2 -3.5 3.5 0 3.3 -0.2 3.5 -3.5 3.5 -3.3 0 -3.5 -0.2 -3.5 -3.5 l0 -3.5 -7 0 -7 0 0 3.5 c0 3.3 -0.2 3.5 -3.5 3.5 l-3.5 0 0 17.5 0 17.5 3.5 0 c3.2 0 3.5 0.2 3.5 3 l0 3 7 0 7 0 0 -3 c0 -2.8 0.3 -3 3.5 -3 3.2 0 3.5 0.2 3.5 3 0 2.3 0.5 3 1.9 3 2.6 0 5.2 2.7 4.4 4.6 -0.3 0.8 -1.8 1.8 -3.4 2.1 -2.5 0.5 -2.9 1 -2.9 3.9 l0 3.4 -14 0 -14 0 0 -3.5z"/>
  <path d="M895 1731.5 l0 -13.5 3.5 0 3.5 0 0 -10.5 0 -10.5 3.5 0 3.5 0 0 -7 0 -7 3 0 3 0 0 -6.5 0 -6.5 10.5 0 10.5 0 0 10 0 10 3.5 0 3.5 0 0 7 0 7 3.5 0 3.5 0 0 10.5 0 10.5 3.5 0 3.5 0 0 10 0 10 -7 0 -7 0 0 -3.5 c0 -3.3 -0.2 -3.5 -3.5 -3.5 l-3.5 0 0 -6.5 0 -6.5 -10.3 0 -10.3 0 -1.1 3 c-0.8 2 -1.8 3 -3.2 3 -1.9 0 -2.1 0.6 -2.1 7 l0 7 -7 0 -7 0 0 -13.5z m34 -27.5 l0 -7 -3.5 0 -3.5 0 0 7 0 7 3.5 0 3.5 0 0 -7z"/>
  <path d="M1258 1741.5 c0 -3.3 -0.2 -3.5 -3.5 -3.5 l-3.5 0 0 -30.5 0 -30.5 3.4 0 c2.9 0 3.4 -0.4 4 -3 0.4 -2.4 1.2 -3.2 3.5 -3.6 2.2 -0.5 3 -1.3 3.5 -3.5 0.4 -2.3 1.2 -3.1 3.6 -3.5 2.6 -0.6 3 -1.1 3 -4 0 -3.2 0.2 -3.4 3.5 -3.4 3.3 0 3.5 -0.2 3.5 -3.5 l0 -3.5 6.5 0 6.5 0 0 7 0 7 -3 0 c-2.8 0 -3 0.3 -3 3.5 l0 3.5 6.5 0 6.5 0 0 6.5 0 6.5 -13.5 0 -13.5 0 0 7 0 7 13.5 0 13.5 0 0 7 0 7 -13.5 0 -13.5 0 0 7 0 7 10 0 10 0 0 3 c0 2.8 0.3 3 3.5 3 l3.5 0 0 7 0 7 -20.5 0 -20.5 0 0 -3.5z"/>
  <path d="M1087 1717.5 l0 -20.5 3.5 0 c3.3 0 3.5 -0.2 3.5 -3.5 0 -2.8 -0.4 -3.5 -1.9 -3.5 -3.4 0 -5.1 -2.8 -5.1 -8.1 l0 -4.9 3.5 0 c3.3 0 3.5 -0.2 3.5 -3.5 l0 -3.5 17 0 17 0 0 6.5 0 6.5 -7 0 -7 0 0 3.5 c0 3.3 -0.2 3.5 -3.5 3.5 l-3.5 0 0 7 0 7 10.5 0 10.5 0 0 7 0 7 -13.5 0 -13.5 0 0 10 0 10 -7 0 -7 0 0 -20.5z"/>
  <path d="M1899.4 1724.1 c1.1 -0.4 2.3 -1.6 2.7 -2.7 0.6 -1.6 0.8 -1.4 0.8 0.9 0.1 2.3 -0.3 2.7 -2.6 2.6 -2.3 0 -2.5 -0.2 -0.9 -0.8z"/>
  <path d="M1903 1717 c0 -0.5 0.5 -1 1 -1 0.6 0 1.5 -1.1 2.2 -2.4 0.6 -1.4 2.4 -3.1 4 -3.9 1.7 -0.8 3.5 -2.5 4.2 -3.8 0.6 -1.3 2.2 -2.9 3.4 -3.5 3.6 -1.8 3.7 -2.3 0.6 -3.6 l-2.9 -1.2 3.8 -0.4 c3.5 -0.3 3.7 -0.5 3.7 -3.8 0 -3.2 0.2 -3.4 3.5 -3.4 3.4 0 3.5 -0.2 3.6 -3.7 0.1 -3.7 0.2 -3.7 0.8 -0.8 0.9 4.1 4.6 4.3 4.6 0.3 -0.1 -1.6 0.3 -2.8 0.7 -2.8 0.4 0 0.8 1.6 0.8 3.5 0 3.3 -0.2 3.5 -3.5 3.5 -3.3 0 -3.5 0.2 -3.5 3.5 0 3.3 -0.2 3.5 -3.5 3.5 -3.3 0 -3.5 0.2 -3.5 3.5 0 3.3 -0.2 3.5 -3.5 3.5 -3.3 0 -3.5 0.2 -3.5 3.5 0 3.3 -0.2 3.5 -3.5 3.5 -3.3 0 -3.5 0.2 -3.5 3.5 0 3.2 -0.2 3.5 -3 3.5 -1.6 0 -3 -0.4 -3 -1z m24.9 -24.6 c-0.9 -1.1 -1.5 -1.2 -2.5 -0.3 -1.1 0.9 -1.2 1.5 -0.3 2.5 0.9 1.1 1.5 1.2 2.5 0.3 1.1 -0.9 1.2 -1.5 0.3 -2.5z"/>
  <path d="M1944 1669.1 c0 -0.5 0.9 -1.1 2 -1.4 1.1 -0.3 2.3 -1.3 2.7 -2.4 0.3 -1 1.9 -2.9 3.5 -4.2 1.5 -1.3 2.8 -3 2.8 -3.7 0 -0.7 0.5 -1.4 1.2 -1.6 0.6 -0.2 1.1 -1.8 1 -3.6 -0.1 -3 0.2 -3.2 3.4 -3.2 3.2 0 3.4 -0.2 3.5 -3.7 0.1 -3.3 0.2 -3.4 0.8 -1.3 0.8 3 3.4 3.3 3.9 0.5 0.8 -4.1 2.2 -3.9 2.2 0.3 0 4.1 -0.1 4.2 -3.5 4.2 -3.3 0 -3.5 0.2 -3.5 3.5 0 3.3 -0.2 3.5 -3.5 3.5 -3.3 0 -3.5 0.2 -3.5 3.5 0 3.2 -0.2 3.5 -3 3.5 -2.8 0 -3 0.3 -3 3.5 0 3.3 -0.2 3.5 -3.5 3.5 -1.9 0 -3.5 -0.4 -3.5 -0.9z"/>
  <path d="M32.8 1633.9 c-1 -0.5 -1.8 -1.9 -1.8 -2.9 0 -1.6 0.7 -2 3.5 -2 3.2 0 3.5 0.2 3.5 3 0 3.2 -1.9 3.9 -5.2 1.9z"/>
  <path d="M1972.8 1634.3 c1.3 -0.3 2.7 -1.5 3.2 -2.8 0.5 -1.3 1.8 -3.3 3 -4.5 1.7 -1.7 1.8 -2.1 0.5 -2.6 -2.7 -1.1 -1.6 -2.4 2 -2.4 l3.5 0 0 -5.4 c0 -5.6 1.6 -8.6 4.6 -8.6 2.2 0 6.4 -3 6.4 -4.6 0 -0.8 0.7 -1.7 1.5 -2 0.9 -0.4 1.5 -1.9 1.5 -4 0 -3.1 0.3 -3.4 3 -3.4 2.7 0 3 -0.3 3 -3.2 0.1 -2.7 0.2 -3 1.1 -1.5 1.3 2.3 2.5 2.2 3.2 -0.3 0.4 -1.6 0 -2 -1.9 -2 -2 0 -2.4 -0.5 -2.4 -3 0 -2.8 0.3 -3 3.5 -3 3.3 0 3.5 -0.2 3.5 -3.5 0 -3.3 0.2 -3.5 3.5 -3.5 l3.5 0 0 -5.4 c0 -5.9 1.6 -8.6 5.1 -8.6 1.5 0 1.9 -0.7 1.9 -3.5 0 -3.3 0.2 -3.5 3.5 -3.5 l3.5 0 0 -7 0 -7 3.5 0 3.5 0 0 -4.9 c0 -5.3 1.7 -8.1 5.1 -8.1 1.5 0 1.9 -0.7 1.9 -3.5 0 -3.2 0.2 -3.5 3 -3.5 l3 0 0 -7 0 -7 3.5 0 3.4 0 0.3 -5.7 c0.3 -5.6 0.4 -5.8 3.6 -6.8 2.8 -0.8 3.2 -1.4 3.2 -4.2 0 -2.8 0.4 -3.3 2.3 -3.3 3.6 0 4.7 -1.9 4.7 -8.2 l0 -5.8 3.5 0 3.5 0 0 -7 0 -7 3.5 0 3.5 0 0 7 0 7 -3.5 0 -3.5 0 0 7 0 7 -3.5 0 -3.5 0 0 6.5 0 6.5 -3.5 0 c-3.3 0 -3.5 0.2 -3.5 3.5 0 3.3 -0.2 3.5 -3.5 3.5 l-3.5 0 0 7 0 7 -3.5 0 -3.5 0 0 7 0 7 -3 0 c-2.7 0 -3 0.3 -3 3 0 2.8 -0.3 3 -3.5 3 l-3.5 0 0 7 0 7 -3.5 0 c-3.3 0 -3.5 0.2 -3.5 3.5 0 3.3 -0.2 3.5 -3.5 3.5 l-3.5 0 0 7 0 7 -3.5 0 c-3.3 0 -3.5 0.2 -3.5 3.5 0 3.3 -0.2 3.5 -3.5 3.5 l-3.5 0 0 6.5 0 6.5 -3.5 0 c-3.3 0 -3.5 0.2 -3.5 3.5 0 3.2 -0.2 3.5 -3 3.5 -2.8 0 -3 0.3 -3 3.5 0 3.3 -0.2 3.5 -3.5 3.5 l-3.5 0 0 7 0 7 -3.5 0 c-3.3 0 -3.5 0.2 -3.5 3.5 0 3.3 -0.2 3.5 -3.5 3.5 -3.2 0 -3.5 0.2 -3.5 3 0 2.8 -0.2 3 -3.7 2.9 -2.5 -0.1 -3 -0.3 -1.5 -0.6z"/>
  <path d="M30.2 1625 c0 -1.9 0.2 -2.7 0.5 -1.7 0.2 0.9 0.2 2.5 0 3.5 -0.3 0.9 -0.5 0.1 -0.5 -1.8z"/>
  <path d="M19.3 1614.3 c0.9 -0.2 2.5 -0.2 3.5 0 0.9 0.3 0.1 0.5 -1.8 0.5 -1.9 0 -2.7 -0.2 -1.7 -0.5z"/>
  <path d="M1996.2 1614.3 c0.9 -0.2 1.9 -1.4 2.1 -2.6 0.4 -1.8 0.5 -1.7 0.6 0.6 0.1 2.2 -0.3 2.7 -2.1 2.6 -1.6 -0.1 -1.8 -0.3 -0.6 -0.6z"/>
  <path d="M11.5 1602 c-0.3 -0.5 -1.5 -1 -2.6 -1 -1.3 0 -1.9 -0.7 -1.9 -2.1 0 -1.5 -0.5 -1.9 -1.5 -1.5 -1.2 0.4 -1.5 -0.5 -1.5 -4.9 0 -4.8 -0.2 -5.5 -2 -5.5 -1.6 0 -2 -0.7 -2 -3 0 -1.6 0.5 -3 1.1 -3 0.6 0 1.6 1.4 2.2 3 0.7 1.7 1.9 3 2.8 3 3.3 0 4.9 2.9 4.9 8.6 0 5.4 0 5.4 3.1 5.4 1.7 0 2.8 0.4 2.4 1 -0.3 0.6 -1.5 1 -2.5 1 -1 0 -2.2 -0.4 -2.5 -1z"/>
  <path d="M580 1577.5 l0 -3.5 -7 0 -7 0 0 -3.5 0 -3.5 -7 0 -7 0 0 -3.4 c0 -2.9 -0.4 -3.4 -3 -4 -2.4 -0.4 -3.2 -1.2 -3.6 -3.5 -0.5 -2.2 -1.3 -3 -3.5 -3.5 -2.3 -0.4 -3.1 -1.2 -3.5 -3.6 -0.5 -2.5 -1.1 -3 -3.5 -3 -2.6 0 -2.9 -0.3 -2.9 -3.5 0 -3.2 0.2 -3.5 3 -3.5 2.7 0 3 -0.3 3 -3 0 -2.8 0.3 -3 3.5 -3 l3.5 0 0 -5.4 c0 -5.9 1.6 -8.6 5.1 -8.6 1.2 0 1.9 -0.7 1.9 -1.9 0 -4 2.6 -5.1 12.1 -5.1 l8.9 0 0 3.5 0 3.5 6.5 0 6.5 0 0 3.5 0 3.5 23.9 0 23.9 0 0.6 -3 c0.4 -2.4 1.2 -3.2 3.6 -3.6 3 -0.6 3 -0.7 3 -7.5 l0 -6.9 -3.5 0 c-3.3 0 -3.5 -0.2 -3.5 -3.5 l0 -3.5 -24 0 -24 0 0 -3 0 -3 -6.5 0 -6.5 0 0 -3.5 0 -3.5 -5.4 0 c-5.8 0 -8.6 -1.6 -8.6 -4.9 0 -1.3 -1 -2 -3 -2.5 -2.4 -0.4 -3.2 -1.2 -3.6 -3.6 -0.6 -2.6 -1.1 -3 -4 -3 l-3.4 0 0 -7 0 -7 -3.5 0 -3.5 0 0 -20.5 0 -20.5 3.5 0 3.5 0 0 -7 0 -7 3.5 0 c3.2 0 3.5 -0.2 3.5 -3 0 -2.8 0.3 -3 3.5 -3 3.3 0 3.5 -0.2 3.5 -3.5 0 -3.3 0.2 -3.5 3.5 -3.5 2.8 0 3.5 -0.4 3.5 -1.9 0 -3.5 2.7 -5.1 8.6 -5.1 l5.4 0 0 -3.5 0 -3.5 13.5 0 13.5 0 0 -3.5 0 -3.5 7 0 7 0 0 3.5 0 3.5 17 0 17 0 0 3.5 0 3.5 7 0 7 0 0 3.5 0 3.5 6.5 0 6.5 0 0 10 0 10 -3 0 -3 0 0 7 0 7 -3.4 0 c-2.9 0 -3.4 0.4 -4 3 -0.4 2.4 -1.2 3.2 -3.5 3.6 -2.2 0.5 -3 1.3 -3.4 3.4 -0.4 1.5 -1.3 3 -2.1 3.3 -1.9 0.8 -4.6 -1.8 -4.6 -4.4 0 -1.8 -0.8 -1.9 -10.5 -1.9 l-10.5 0 0 -3.5 0 -3.5 -16.9 0 -16.8 0 -0.7 3 c-0.4 2.4 -1.2 3.2 -3.6 3.6 -3 0.6 -3 0.7 -3 7.5 l0 6.9 14 0 14 0 0 3 0 3 13.5 0 13.5 0 0 3.5 0 3.5 7 0 7 0 0 3.5 0 3.5 5.4 0 c5.8 0 8.6 1.6 8.6 5 0 1.2 0.8 2 2.3 2.2 1.5 0.2 2.5 1.3 3.2 3.6 0.8 2.8 1.4 3.2 4.2 3.2 l3.3 0 0 7 0 7 3.5 0 3.5 0 0 20.5 0 20.5 -3.5 0 -3.5 0 0 4.9 c0 5.3 -1.7 8.1 -5.1 8.1 -1.5 0 -1.9 0.7 -1.9 3.5 0 3.2 -0.2 3.5 -3 3.5 -2.8 0 -3 0.3 -3 3.5 0 3.3 -0.2 3.5 -3.5 3.5 -3.3 0 -3.5 0.2 -3.5 3.5 0 3.3 -0.2 3.5 -3.5 3.5 -3.3 0 -3.5 0.2 -3.5 3.5 l0 3.5 -10.5 0 -10.5 0 0 3.5 0 3.5 -30.5 0 -30.5 0 0 -3.5z m54 -185 c0 -3.2 -0.2 -3.5 -3 -3.5 -2.8 0 -3 0.3 -3 3.5 0 3.2 0.2 3.5 3 3.5 2.8 0 3 -0.3 3 -3.5z"/>
  <path d="M778 1577.5 l0 -3.5 -10 0 -10 0 0 -3.5 0 -3.5 -7 0 -7 0 0 -3.4 c0 -2.9 -0.4 -3.4 -3 -4 -2.4 -0.4 -3.2 -1.2 -3.6 -3.5 -0.5 -2.2 -1.3 -3 -3.5 -3.5 -2.3 -0.4 -3.1 -1.2 -3.5 -3.6 -0.6 -2.6 -1.1 -3 -4 -3 l-3.4 0 0 -6.4 c0 -5.9 -0.2 -6.5 -2.2 -6.8 -1.6 -0.2 -2.6 -1.3 -3.3 -3.5 -0.8 -2.9 -1.4 -3.3 -4.2 -3.3 l-3.3 0 0 -10.5 0 -10.5 -3.5 0 -3.5 0 0 -30.5 0 -30.5 3.5 0 3.5 0 0 -10.5 0 -10.5 3.5 0 c3.3 0 3.5 -0.2 3.5 -3.5 0 -3.2 0.2 -3.5 3 -3.5 3 0 3 -0.1 3 -5.4 0 -5.9 1.6 -8.6 5.1 -8.6 1.4 0 1.9 -0.7 1.9 -3 l0 -3 6.9 0 c6.8 0 6.9 0 7.5 -3 0.4 -2.4 1.2 -3.2 3.6 -3.6 2.6 -0.6 3 -1.1 3 -4 l0 -3.4 7 0 7 0 0 -3.5 0 -3.5 20.5 0 20.5 0 0 -3.6 c0 -2.3 0.4 -3.3 1.1 -2.8 0.6 0.3 0.9 1.9 0.7 3.5 -0.3 2.2 0 2.9 1.1 2.9 1.1 0 1.6 -0.9 1.6 -3.2 0 -1.7 0.6 -3.3 1.3 -3.5 0.8 -0.3 1.2 0.7 1.2 3.1 l0 3.6 17 0 17 0 0 3.5 0 3.5 7 0 7 0 0 3.5 c0 3.2 0.2 3.5 3 3.5 2.8 0 3 0.3 3 3.5 l0 3.5 5.1 0 c7.7 0 8.9 1 8.9 7.5 l0 5.5 3.5 0 c3.3 0 3.5 0.2 3.5 3.5 0 3.3 0.2 3.5 3.5 3.5 l3.5 0 0 7 0 7 3.5 0 3.5 0 0 10 0 10 3.5 0 3.5 0 0 21 0 21 -3.5 0 -3.5 0 0 17 0 17 -3.5 0 -3.5 0 0 6.5 0 6.5 -3.4 0 c-2.9 0 -3.4 0.4 -4 3 -0.4 2.4 -1.2 3.2 -3.5 3.6 -2.2 0.5 -3 1.3 -3.5 3.5 -0.4 2.2 -1.3 3.1 -3.5 3.5 -2.2 0.5 -3 1.3 -3.5 3.5 -0.4 2.3 -1.2 3.1 -3.6 3.5 -2.6 0.6 -3 1.1 -3 4 l0 3.4 -6.5 0 -6.5 0 0 3.5 0 3.5 -10.5 0 -10.5 0 0 3.5 0 3.5 -27.5 0 -27.5 0 0 -3.5z m89 -41.5 c0 -2.7 -0.3 -3 -3 -3 -2.7 0 -3 0.3 -3 3 0 2.7 0.3 3 3 3 2.7 0 3 -0.3 3 -3z m-41 -13.5 l0 -3.5 7 0 7 0 0 -7 0 -7 3.5 0 3.5 0 0 -10 0 -10 3.5 0 3.5 0 0 -10.5 0 -10.5 -3.5 0 -3.5 0 0 -9.9 0 -9.8 -3 -0.7 c-2.4 -0.4 -3.2 -1.2 -3.6 -3.5 -0.5 -2.2 -1.3 -3 -3.5 -3.5 -2.2 -0.4 -3.1 -1.3 -3.5 -3.5 -0.5 -2.2 -1.3 -3 -3.5 -3.5 -2.3 -0.4 -3.1 -1.2 -3.5 -3.6 l-0.6 -3 -20.4 0 -20.4 0 0 3.5 0 3.5 -6.8 0 -6.8 0 -0.9 3.3 c-0.7 2.2 -1.7 3.3 -3.2 3.5 -2.1 0.3 -2.3 0.9 -2.3 6.8 l0 6.4 -3.5 0 -3.5 0 0 24 0 24 3.5 0 3.5 0 0 6.9 c0 6.5 0.2 7 2.3 7.3 1.5 0.2 2.5 1.3 3.2 3.6 l0.9 3.2 6.8 0 6.8 0 0 3.5 0 3.5 20.5 0 20.5 0 0 -3.5z"/>
  <path d="M1005 1577.5 l0 -3.5 -41.5 0 -41.5 0 0 -96 0 -96 3.5 0 c3.3 0 3.5 -0.2 3.5 -3.5 l0 -3.5 24 0 24 0 0 17 0 17 3.5 0 3.5 0 0 10.5 0 10.5 -3.5 0 -3.5 0 0 13.5 0 13.5 3.5 0 3.5 0 0 24 0 24 -3.5 0 -3.5 0 0 7 0 7 3.5 0 c3.3 0 3.5 0.2 3.5 3.5 l0 3.5 7 0 7 0 0 -3.5 c0 -3.3 0.2 -3.5 3.5 -3.5 2.8 0 3.5 -0.4 3.5 -2 0 -1.6 0.7 -2 3 -2 2.3 0 3 0.4 3 2 0 1.6 0.7 2 3.5 2 3.3 0 3.5 0.2 3.5 3.5 l0 3.5 7 0 7 0 0 -3.5 0 -3.5 13.5 0 13.5 0 0 3.5 c0 3.3 0.2 3.5 3.5 3.5 l3.5 0 0 23.9 c0 17.7 -0.3 24 -1.2 24.3 -0.9 0.3 -0.9 0.6 0 1.2 0.7 0.4 1.2 0.2 1.2 -0.3 0 -0.7 2.7 -1.1 7 -1.1 l7 0 0 -99.5 0 -99.5 72 0 72 0 0 27.5 0 27.5 -44.5 0 -44.5 0 0 10 0 10 41 0 41 0 0 24 0 24 -41 0 -41 0 0 10.5 0 10.5 3.5 0 c3.3 0 3.5 0.2 3.5 3.5 l0 3.5 6.5 0 6.5 0 0 -3.5 0 -3.5 14 0 14 0 0 3.5 c0 3.3 0.2 3.5 3.5 3.5 3.3 0 3.5 -0.2 3.5 -3.5 l0 -3.5 13.5 0 13.5 0 0 3.5 c0 3.3 0.2 3.5 3.5 3.5 l3.5 0 0 24 0 24 -61.5 0 c-60.1 0 -61.5 0 -61.5 1.9 0 4.5 -2.1 5.1 -19.1 5.1 -11.7 0 -15.9 -0.3 -15.9 -1.2 0 -0.9 -0.3 -0.9 -1.2 0 -0.7 0.7 -2.2 1.2 -3.5 1.2 -2 0 -2.3 -0.5 -2.3 -3.5 l0 -3.5 -24 0 -24 0 0 3.5 c0 3.2 -0.2 3.5 -3 3.5 -2.8 0 -3 -0.3 -3 -3.5z"/>
  <path d="M264 1556.5 l0 -17.5 -3.5 0 -3.5 0 0 -6.5 0 -6.5 3.5 0 3.5 0 0 -20.5 0 -20.5 -3.7 0 c-3.5 -0.1 -3.7 -0.2 -1.9 -1.5 1.3 -1 2.4 -1.1 3.7 -0.4 1.7 0.8 1.9 0.6 1.9 -2.1 0 -2.8 -0.3 -3 -3.5 -3 l-3.5 0 0 -48 0 -48 3.5 0 c3.3 0 3.5 -0.2 3.5 -3.5 l0 -3.5 24 0 24 0 0 3.5 c0 3.3 0.2 3.5 3.5 3.5 l3.5 0 0 92.5 0 92.5 -3.5 0 c-3.3 0 -3.5 0.2 -3.5 3.5 l0 3.5 -24 0 -24 0 0 -17.5z"/>
  <path d="M346 1570.5 c0 -3.2 -0.2 -3.5 -3 -3.5 l-3 0 0 -37.5 0 -37.5 3 0 c2.5 0 3 -0.4 3 -2.5 0 -2.1 -0.5 -2.5 -3 -2.5 -1.6 0 -3 -0.4 -3 -1 0 -0.5 1.4 -1 3 -1 l3 0 0 -20.5 0 -20.5 -3 0 c-2.8 0 -3 -0.3 -3 -3.5 0 -3.2 0.2 -3.5 3 -3.5 l3 0 0 -14 0 -14 -3 0 -3 0 0 -10 0 -10 3 0 3 0 0 -7 0 -7 21 0 21 0 0 3.5 c0 3.2 0.2 3.5 3 3.5 2.7 0 3 0.3 3 3.4 0 2.9 0.4 3.4 3 4 2.3 0.4 3.2 1.2 3.6 3.4 0.4 2.1 1.4 3.1 3.7 3.8 2.2 0.6 3.3 1.6 3.5 3.2 0.2 1.4 1 2.2 2.2 2.2 3.4 0 5 2.8 5 8.6 l0 5.4 3.5 0 c3.3 0 3.5 0.2 3.5 3.5 0 2.8 0.4 3.5 1.9 3.5 3.5 0 5.1 2.7 5.1 8.6 l0 5.4 3.5 0 c3.3 0 3.5 0.2 3.5 3.5 0 2.9 0.4 3.5 2.1 3.5 1.4 0 2.4 1 3.2 3 0.7 1.7 1.9 3 2.8 3 3.3 0 4.9 2.9 4.9 8.6 l0 5.4 3.5 0 c3.3 0 3.5 0.2 3.5 3.5 0 3.3 0.2 3.5 3.5 3.5 l3.5 0 0 -48 0 -48 24 0 24 0 0 3.5 c0 3.3 0.2 3.5 3.5 3.5 l3.5 0 0 89 0 89 -3.5 0 -3.5 0 0 7 0 7 -24 0 -24 0 0 -7 0 -7 -3.5 0 c-3.3 0 -3.5 -0.2 -3.5 -3.4 0 -2.9 -0.4 -3.4 -3 -4 -2.4 -0.4 -3.2 -1.2 -3.6 -3.6 -0.6 -2.6 -1.1 -3 -4 -3 l-3.4 0 0 -6.4 c0 -5.9 -0.2 -6.5 -2.2 -6.8 -1.6 -0.2 -2.6 -1.3 -3.3 -3.5 -0.8 -2.9 -1.4 -3.3 -4.2 -3.3 l-3.3 0 0 -6.9 c0 -6.8 0 -6.9 -3 -7.5 -2.4 -0.4 -3.2 -1.2 -3.6 -3.6 -0.5 -2 -1.2 -3 -2.5 -3 -3.2 0 -4.9 -2.8 -4.9 -8.1 l0 -4.9 -3.5 0 c-3.3 0 -3.5 -0.2 -3.5 -3.5 0 -3.3 -0.2 -3.5 -3.5 -3.5 l-3.5 0 0 44.5 0 44.5 -27.5 0 -27.5 0 0 -3.5z"/>
  <path d="M1251 1570.5 c0 -3.3 -0.2 -3.5 -3.5 -3.5 l-3.5 0 0 -34.5 0 -34.5 3.5 0 c3 0 3.5 -0.3 3.5 -2.3 0 -2 -0.4 -2.3 -2.9 -1.9 -1.6 0.2 -3.2 -0.1 -3.5 -0.7 -0.5 -0.7 0.5 -1.1 2.8 -1.1 l3.6 0 0 -41.5 0 -41.5 -3.6 0 c-2.4 0 -3.4 -0.4 -3.1 -1.2 0.2 -0.7 1.8 -1.3 3.5 -1.3 2.7 0 3.2 -0.4 3.2 -2.2 0 -2 -0.5 -2.3 -3.5 -2.3 l-3.5 0 0 -6.5 0 -6.5 3.5 0 3.5 0 0 -7 0 -7 24 0 24 0 0 6.9 c0 6.8 0 6.9 3 7.5 2.3 0.4 3.2 1.2 3.6 3.4 0.4 2.1 1.4 3.1 3.7 3.8 2.2 0.6 3.3 1.6 3.5 3.2 0.2 1.4 1 2.2 2.2 2.2 3.4 0 5 2.8 5 8.6 l0 5.4 3.5 0 c3.3 0 3.5 0.2 3.5 3.5 0 2.8 0.4 3.5 1.9 3.5 3.5 0 5.1 2.7 5.1 8.6 0 5.3 0 5.4 3 5.4 2.7 0 3 0.3 3 3.3 0 2.8 0.4 3.4 3.3 4.2 2.2 0.7 3.3 1.7 3.5 3.3 0.2 1.4 1 2.2 2.2 2.2 3.4 0 5 2.8 5 8.6 l0 5.4 3.5 0 c3.3 0 3.5 0.2 3.5 3.5 0 3.3 0.2 3.5 3.5 3.5 l3.5 0 0 -48 0 -48 27.5 0 27.5 0 0 92.5 0 92.5 -3.5 0 -3.5 0 0 7 0 7 -24 0 -24 0 0 -6.9 c0 -6.8 0 -6.9 -3 -7.5 -2.4 -0.4 -3.2 -1.2 -3.6 -3.6 -0.5 -2 -1.2 -3 -2.5 -3 -3.3 0 -4.9 -2.8 -4.9 -8.6 l0 -5.4 -3.5 0 c-3.2 0 -3.5 -0.3 -3.5 -2.9 0 -2.4 -0.5 -3 -3 -3.5 -2.4 -0.4 -3.2 -1.2 -3.6 -3.6 -0.5 -2.5 -1.1 -3 -3.5 -3 l-2.9 0 0 -6.9 c0 -6.8 0 -6.9 -3 -7.5 -2.4 -0.4 -3.2 -1.2 -3.6 -3.6 -0.5 -2 -1.2 -3 -2.5 -3 -3.2 0 -4.9 -2.8 -4.9 -8.1 l0 -4.9 -3.5 0 c-3.3 0 -3.5 -0.2 -3.5 -3.5 0 -3.3 -0.2 -3.5 -3.5 -3.5 l-3.5 0 0 44.5 0 44.5 -27.5 0 -27.5 0 0 -3.5z"/>
  <path d="M1484 1502 l0 -72 -24 0 -24 0 0 -7 0 -7 -3 0 c-2.8 0 -3 -0.3 -3 -3.5 0 -3.2 0.2 -3.5 3 -3.5 l3 0 0 -6.5 0 -6.5 -3 0 -3 0 0 -7 0 -7 3 0 c2.8 0 3 -0.3 3 -3.5 l0 -3.5 79 0 79 0 0 24 0 24 -3.5 0 c-3.3 0 -3.5 0.2 -3.5 3.5 l0 3.5 -20.5 0 -20.5 0 0 3.5 c0 3.3 -0.2 3.5 -3.5 3.5 l-3.5 0 0 10 0 10 3.8 0 c3 0.1 3.4 0.3 1.9 1.1 -0.9 0.6 -2.6 0.7 -3.7 0.4 -1.7 -0.5 -2 -0.2 -2 2.4 0 2.9 0.3 3.1 3.5 3.1 3.3 0 3.5 0.2 3.5 3.5 0 3.3 -0.2 3.5 -3.5 3.5 -3.2 0 -3.5 0.2 -3.5 3.1 0 2.6 0.3 2.9 2 2.4 1.1 -0.3 2.8 -0.2 3.7 0.4 1.5 0.8 1.1 1 -1.9 1.1 l-3.8 0 0 41 0 41 3.5 0 c3.3 0 3.5 0.2 3.5 3.5 0 3.3 -0.2 3.5 -3.5 3.5 -3.3 0 -3.5 0.2 -3.5 3.5 l0 3.5 -27.5 0 -27.5 0 0 -72z m28 -34.5 c0 -3.3 -0.2 -3.5 -3.5 -3.5 -3.3 0 -3.5 0.2 -3.5 3.5 0 3.3 0.2 3.5 3.5 3.5 3.3 0 3.5 -0.2 3.5 -3.5z"/>
  <path d="M1608 1567 l0 -7 -3.5 0 -3.5 0 0 -7 0 -7 3.5 0 3.5 0 0 -24 0 -24 -3.5 0 c-1.9 0 -3.5 -0.4 -3.5 -0.9 0 -1.3 3 -2.2 5.1 -1.6 1.4 0.5 1.9 0.1 1.9 -1.4 0 -1.7 -0.6 -2.1 -3.5 -2.1 -3.3 0 -3.5 -0.2 -3.5 -3.5 0 -3.3 0.2 -3.5 3.5 -3.5 l3.5 0 0 -55 0 -55 68.5 0 68.5 0 0 3.5 c0 3.3 0.2 3.5 3.5 3.5 l3.5 0 0 20.5 0 20.5 -3.5 0 c-3.3 0 -3.5 0.2 -3.5 3.5 l0 3.5 -41 0 -41 0 0 10 0 10 37.5 0 37.5 0 0 3.5 c0 3.3 0.2 3.5 3.5 3.5 l3.5 0 0 20.5 0 20.5 -41 0 -41 0 0 10.5 0 10.5 3.5 0 c3.3 0 3.5 0.2 3.5 3.5 l0 3.5 6.5 0 6.5 0 0 -3.5 0 -3.5 10.5 0 10.5 0 0 3.5 0 3.5 6.5 0 6.5 0 0 -3.5 0 -3.5 14 0 14 0 0 3.5 c0 3.3 0.2 3.5 3.5 3.5 l3.5 0 0 24 0 24 -72 0 -72 0 0 -7z"/>
  <path d="M2030.2 1566.3 c0.9 -0.2 1.9 -1.2 2.1 -2.1 0.3 -1.2 0.5 -1 0.6 0.6 0.1 1.7 -0.4 2.2 -2.1 2.1 -1.6 -0.1 -1.8 -0.3 -0.6 -0.6z"/>
  <path d="M2064.2 1511.3 c0.9 -0.2 1.9 -1.2 2.1 -2.1 0.3 -1.2 0.5 -1 0.6 0.6 0.1 1.7 -0.4 2.2 -2.1 2.1 -1.6 -0.1 -1.8 -0.3 -0.6 -0.6z"/>
  <path d="M978.5 1436 c0.3 -0.5 1.2 -1 2 -1 0.8 0 1.7 0.5 2 1 0.4 0.6 -0.5 1 -2 1 -1.5 0 -2.4 -0.4 -2 -1z"/>
  <path d="M1005 1324.4 c0 -1.8 2.4 -4.4 4 -4.4 1.5 0 2 0.7 2 2.5 0 2.1 -0.5 2.5 -3 2.5 -1.6 0 -3 -0.3 -3 -0.6z"/>
  <path d="M957 1241.5 l0 -3.5 -14 0 -14 0 0 -3.5 0 -3.5 -7 0 -7 0 0 -3.5 0 -3.5 -4.9 0 c-5.3 0 -8.1 -1.7 -8.1 -5.1 0 -1.7 -0.8 -1.9 -7 -1.9 l-7 0 0 -3.3 c0 -2.8 -0.4 -3.4 -3.2 -4.2 -2.3 -0.7 -3.4 -1.7 -3.6 -3.2 -0.3 -1.9 -1 -2.3 -3.8 -2.3 -3.2 0 -3.4 -0.2 -3.4 -3.5 0 -3.3 -0.2 -3.5 -3.5 -3.5 -3.3 0 -3.5 -0.2 -3.5 -3.4 0 -2.8 -0.4 -3.5 -2.2 -3.8 -1.6 -0.2 -2.6 -1.3 -3.3 -3.5 l-0.9 -3.3 -6.8 0 -6.8 0 0 -3.4 c0 -2.9 -0.4 -3.4 -3 -4 -2.4 -0.4 -3.2 -1.2 -3.6 -3.6 -0.6 -2.6 -1.1 -3 -3.9 -3 -2.8 0 -3.3 0.4 -3.9 3 -0.4 2.4 -1.2 3.2 -3.5 3.6 -2.2 0.5 -3 1.3 -3.4 3.4 -0.4 1.5 -1.3 3 -2.1 3.3 -1.9 0.8 -4.6 -1.8 -4.6 -4.4 0 -1.4 -0.7 -1.9 -3 -1.9 -2.8 0 -3 -0.3 -3 -3.5 l0 -3.5 -5.4 0 c-5.7 0 -8.6 -1.6 -8.6 -4.9 0 -1 -1.2 -2 -3.2 -2.6 -2.2 -0.7 -3.4 -1.7 -3.6 -3.1 -0.2 -1.5 -1.2 -2.4 -3.3 -2.8 -2.2 -0.4 -3.1 -1.2 -3.5 -3.5 -0.5 -2.2 -1.3 -3 -3.5 -3.5 -2.2 -0.4 -3.1 -1.3 -3.5 -3.5 -0.5 -2.2 -1.3 -3 -3.5 -3.5 -2.3 -0.4 -3.1 -1.2 -3.5 -3.6 -0.5 -2.5 -1.1 -3 -3.5 -3 l-2.9 0 0 -6.9 c0 -6.8 0 -6.9 -3 -7.5 -2.4 -0.4 -3.2 -1.2 -3.6 -3.6 -0.6 -2.6 -1.1 -3 -4 -3 l-3.4 0 0 -6.5 c0 -5.8 -0.2 -6.5 -1.9 -6.5 -3.5 0 -5.1 -2.7 -5.1 -8.6 l0 -5.4 -3.5 0 c-3.3 0 -3.5 -0.2 -3.5 -3.5 0 -3.3 -0.2 -3.5 -3.5 -3.5 l-3.5 0 0 7 0 7 -6.5 0 -6.5 0 0 -7 0 -7 -3.5 0 c-3.3 0 -3.5 -0.2 -3.5 -3.4 0 -2.9 -0.4 -3.4 -3 -4 -2.4 -0.4 -3.2 -1.2 -3.6 -3.6 -0.6 -2.6 -1.1 -3 -4 -3 l-3.4 0 0 -10 0 -10 -3.5 0 -3.5 0 0 -7 0 -7 -3.5 0 -3.5 0 0 -10 0 -10 -3 0 -3 0 0 -7 0 -7 -3.5 0 -3.5 0 0 7 0 7 -3.5 0 c-2.8 0 -3.5 0.4 -3.5 2 0 2.5 -3 4.1 -5.3 2.9 -0.9 -0.6 -1.7 -1.9 -1.7 -2.9 0 -1.6 -0.7 -2 -3.5 -2 l-3.5 0 0 -10.5 0 -10.5 -3.5 0 -3.5 0 0 -34 0 -34 3.5 0 3.5 0 0 -10.5 0 -10.5 3.5 0 3.5 0 0 -10.5 0 -10.5 3.5 0 3.5 0 0 -10 0 -10 3.5 0 3.5 0 0 -14 0 -14 3.5 0 3.5 0 0 -13.5 0 -13.5 -10.5 0 -10.5 0 0 3.5 c0 3.3 -0.2 3.5 -3.5 3.5 l-3.5 0 0 -7 0 -7 3.4 0 c2.9 0 3.4 -0.4 4 -3 0.4 -2.4 1.2 -3.2 3.6 -3.6 2.6 -0.6 3 -1.1 3 -4 0 -3.2 0.2 -3.4 3.5 -3.4 l3.5 0 0 -6.5 0 -6.5 -7 0 -7 0 0 -3.5 c0 -3.3 -0.2 -3.5 -3.5 -3.5 -3.3 0 -3.5 0.2 -3.5 3.5 l0 3.5 -10 0 -10 0 0 -24 0 -24 -7 0 -7 0 0 -10.5 0 -10.5 -3.5 0 -3.5 0 0 -27.5 0 -27.5 3.5 0 3.5 0 0 -10 0 -10 3.4 0 c2.9 0 3.4 -0.4 4 -3 0.4 -2.3 1.2 -3.2 3.4 -3.6 2.1 -0.4 3.1 -1.4 3.8 -3.7 0.6 -2.1 1.6 -3.3 3 -3.5 1.5 -0.2 2.4 -1.2 2.8 -3.3 0.4 -2.3 1.2 -3.1 3.6 -3.5 3 -0.6 3 -0.7 3 -7.5 l0 -6.9 -6.5 0 -6.5 0 0 -3 0 -3 13.5 0 13.5 0 0 -3.5 0 -3.5 10.5 0 10.5 0 0 -3.5 0 -3.5 6.4 0 c6.3 0 6.4 0 7 -3 0.4 -2.4 1.2 -3.2 3.6 -3.6 3 -0.6 3 -0.7 3 -7.5 l0 -6.9 3.4 0 c2.9 0 3.4 -0.4 4 -3 0.4 -2.4 1.2 -3.2 3.6 -3.6 3 -0.6 3 -0.7 3 -7 l0 -6.4 3.5 0 c3.3 0 3.5 -0.2 3.5 -3.5 l0 -3.5 -7 0 -7 0 0 -3.5 0 -3.5 -13.5 0 -13.5 0 0 -3.5 0 -3.5 -14 0 -14 0 0 -3.5 0 -3.5 -13.5 0 -13.5 0 0 -3.5 0 -3.5 -10.5 0 -10.5 0 0 -3 c0 -2.8 -0.3 -3 -3.5 -3 l-3.5 0 0 -14 0 -14 7 0 7 0 0 -3.5 0 -3.5 10.5 0 10.5 0 0 -3 0 -3 10 0 10 0 0 -3.5 0 -3.5 24 0 24 0 0 -3.5 0 -3.5 24 0 24 0 0 3.5 c0 3.3 0.2 3.5 3.6 3.5 2.4 0 3.4 0.4 3.1 1.3 -0.2 0.6 -1.8 1.2 -3.5 1.2 -3.2 0 -3.2 0 -3.2 5.2 l0 5.3 7 0 7 0 0 3.5 0 3.5 20.5 0 20.5 0 0 3.5 0 3.5 24 0 24 0 0 3.5 0 3.5 27.8 0.1 c15.2 0.1 29.2 0 31 -0.1 3 -0.1 3.2 0 3.2 3.4 l0 3.6 99 0 99 0 0 -3.5 0 -3.5 31 0 31 0 0 -3.5 0 -3.5 24 0 24 0 0 -3.5 0 -3.5 20.5 0 20.5 0 0 -3.5 c0 -3.3 0.2 -3.5 3.5 -3.5 l3.5 0 0 -10 0 -10 27.5 0 27.5 0 0 3.5 0 3.5 20.5 0 20.5 0 0 3.5 0 3.5 13.5 0 13.5 0 0 3 0 3 10.5 0 10.5 0 0 3.5 c0 3.3 0.2 3.5 3.5 3.5 3.3 0 3.5 0.2 3.5 3.5 0 3.3 0.2 3.5 3.5 3.5 l3.5 0 0 7 0 7 -3.4 0 c-2.9 0 -3.4 0.4 -4 3 -0.4 2.4 -1.2 3.2 -3.6 3.6 -2.5 0.5 -3 1.1 -3 3.5 l0 2.9 -7 0 -7 0 0 3.5 0 3.5 -13.5 0 -13.5 0 0 3.5 0 3.5 -14 0 -14 0 0 3.5 0 3.5 -17 0 -17 0 0 3.5 c0 3.3 -0.2 3.5 -3.5 3.5 l-3.5 0 0 7 0 7 3.5 0 3.5 0 0 6.4 c0 6.3 0 6.4 3 7 2.4 0.4 3.2 1.2 3.6 3.5 0.5 2.2 1.3 3 3.5 3.5 2.2 0.4 3.1 1.3 3.5 3.5 0.5 2.2 1.3 3 3.5 3.5 2.3 0.4 3.1 1.2 3.5 3.6 0.6 2.6 1.1 3 4 3 3.2 0 3.4 0.2 3.4 3.5 l0 3.5 13.5 0 13.5 0 0 3.5 0 3.5 10.6 0 c10.4 0 10.5 0 10.2 2.3 -0.2 1.5 -1.3 2.5 -3.5 3.1 -2.3 0.7 -3.3 1.7 -3.7 3.8 -0.4 2.2 -1.3 3 -3.6 3.4 -2.6 0.6 -3 1.1 -3 4 l0 3.4 7 0 7 0 0 3.4 c0 2.8 0.4 3.5 2.3 3.8 1.5 0.2 2.5 1.3 3.2 3.6 0.8 2.8 1.4 3.2 4.2 3.2 l3.3 0 0 7 0 7 3.5 0 3.5 0 0 10 0 10 3.5 0 3.5 0 0 20.5 0 20.5 -3.5 0 -3.5 0 0 10.5 0 10.5 -3.5 0 -3.5 0 0 7 0 7 -3.5 0 -3.5 0 0 17 0 17 -3 0 c-2.8 0 -3 0.3 -3 3.5 l0 3.5 -7 0 -7 0 0 -3.5 c0 -3.3 -0.2 -3.5 -3.5 -3.5 -3.3 0 -3.5 0.2 -3.5 3.5 l0 3.5 -7 0 -7 0 0 6.5 c0 5.8 0.2 6.5 1.9 6.5 3.5 0 5.1 2.7 5.1 8.6 l0 5.4 7 0 7 0 0 7 0 7 -3.5 0 c-3.3 0 -3.5 -0.2 -3.5 -3.5 l0 -3.5 -10.5 0 -10.5 0 0 -3.5 c0 -3.2 -0.2 -3.5 -3 -3.5 l-3 0 0 10.5 0 10.5 3 0 3 0 0 10 0 10 3.5 0 3.5 0 0 10.5 0 10.5 3.5 0 3.5 0 0 10 0 10 3.5 0 3.5 0 0 14 0 14 3.5 0 3.5 0 0 13.5 0 13.5 3.5 0 3.5 0 0 20.5 0 20.5 -3.5 0 -3.5 0 0 14 0 14 -3.5 0 -3.5 0 0 6.5 0 6.5 -7 0 -7 0 0 -10 0 -10 -6.5 0 -6.5 0 0 13.5 0 13.5 -3.5 0 -3.5 0 0 10.5 0 10.5 -3.5 0 -3.5 0 0 7 0 7 -3.5 0 -3.5 0 0 6.5 0 6.5 -3.4 0 c-2.9 0 -3.4 0.4 -4 3 -0.4 2.4 -1.2 3.2 -3.6 3.6 -2.6 0.6 -3 1.1 -3 4 0 3.2 -0.2 3.4 -3.5 3.4 -3.3 0 -3.5 0.2 -3.5 3.5 0 3.2 -0.2 3.5 -3 3.5 l-3 0 0 -10.5 0 -10.5 -3.5 0 -3.5 0 0 7 0 7 -3.5 0 -3.5 0 0 7 0 7 -3.5 0 c-3.3 0 -3.5 0.2 -3.5 3.5 0 3.3 -0.2 3.5 -3.5 3.5 l-3.5 0 0 4.9 c0 5.3 -1.7 8.1 -4.9 8.1 -1.3 0 -2 1 -2.5 3 -0.4 2.4 -1.2 3.2 -3.6 3.6 -2.6 0.6 -3 1.1 -3 4 0 3.1 -0.3 3.4 -3 3.4 -3 0 -3 0.1 -3 5.4 0 5.9 -1.6 8.6 -5.1 8.6 -1.2 0 -1.9 0.7 -1.9 1.9 0 3.5 -2.7 5.1 -8.6 5.1 -5.3 0 -5.4 0 -5.4 3 0 2.7 -0.3 3 -3.4 3 -2.9 0 -3.4 0.4 -4 3 -0.4 2.3 -1.2 3.2 -3.4 3.6 -2.1 0.4 -3.1 1.4 -3.8 3.7 -0.6 2.2 -1.6 3.3 -3.1 3.5 -1.9 0.3 -2.3 1 -2.3 3.8 l0 3.4 -7 0 -7 0 0 -7 0 -7 -7 0 -7 0 0 3.5 c0 3.3 -0.2 3.5 -3.4 3.5 -2.9 0 -3.4 0.4 -4 3 -0.4 2.3 -1.2 3.2 -3.4 3.6 -2.1 0.4 -3.1 1.4 -3.8 3.7 -0.6 2.1 -1.6 3.3 -3 3.5 -1.5 0.2 -2.4 1.2 -2.8 3.3 -0.4 2.2 -1.2 3.1 -3.5 3.5 -2.2 0.5 -3 1.3 -3.5 3.5 -0.4 2.3 -1.3 3.1 -3.5 3.5 -2.1 0.4 -3.1 1.3 -3.3 2.8 -0.2 1.4 -1.4 2.4 -3.5 3.1 -2.9 0.8 -3.3 1.4 -3.3 4.2 l0 3.3 -7 0 -7 0 0 3.5 0 3.5 -6.5 0 -6.5 0 0 3.5 0 3.5 -7 0 -7 0 0 3.5 0 3.5 -14 0 -14 0 0 3.5 0 3.5 -51 0 -51 0 0 -3.5z m-61.6 -143.5 c0.4 -2.4 1.2 -3.2 3.5 -3.6 2.2 -0.5 3 -1.3 3.5 -3.5 0.4 -2.3 1.2 -3.1 3.6 -3.5 3 -0.6 3 -0.7 3 -7.5 l0 -6.9 6.5 0 6.5 0 0 -3.5 0 -3.5 17.5 0 17.5 0 0 -3 0 -3 23.9 0 23.9 0 0.6 -3 c0.4 -2.2 1.1 -3 2.6 -3 1.5 0 2.2 0.8 2.7 3 l0.6 3 23.8 0 23.9 0 0 3 0 3 17.5 0 17.5 0 0 3.5 c0 3.3 0.2 3.5 3.5 3.5 l3.5 0 0 6.9 c0 6.5 0.2 7 2.3 7.3 1.5 0.2 2.5 1.3 3.1 3.5 0.7 2.3 1.7 3.3 3.8 3.7 2.2 0.4 3 1.3 3.4 3.6 l0.7 3 20.3 0 20.4 0 0 -3.5 0 -3.5 7 0 7 0 0 -7 0 -7 3.5 0 3.5 0 0 -9.9 0 -9.8 -3 -0.7 c-2.4 -0.4 -3.2 -1.2 -3.6 -3.6 -0.6 -3 -0.7 -3 -7.5 -3 l-6.9 0 0 -3.5 0 -3.5 -6.5 0 -6.5 0 0 -3.5 0 -3.5 -7 0 -7 0 0 -3.5 0 -3.5 -10.5 0 -10.5 0 0 -3.5 0 -3.5 -17 0 -17 0 0 -3.5 0 -3.5 -20.5 0 -20.5 0 0 -3 0 -3 -10.5 0 c-9.6 0 -10.5 0.2 -10.5 1.9 0 1 -0.7 2.4 -1.5 3.1 -1.9 1.6 -4.5 -0.3 -4.5 -3.1 0 -1.7 -0.9 -1.9 -10.5 -1.9 l-10.5 0 0 3 0 3 -24 0 -24 0 0 3.5 0 3.5 -13.5 0 -13.5 0 0 3.5 0 3.5 -10.5 0 -10.5 0 0 3.5 0 3.5 -10.3 0 -10.3 0 -0.9 3.3 c-0.7 2.2 -1.7 3.3 -3.2 3.5 -1.9 0.3 -2.3 1 -2.3 3.8 l0 3.4 -6.9 0 c-6.8 0 -6.9 0 -7.5 3 -0.4 2.4 -1.2 3.2 -3.6 3.6 l-3 0.7 0 13.2 0 13.3 3 0.6 c2.4 0.4 3.2 1.2 3.6 3.5 0.5 2.2 1.3 3 3.5 3.5 2.3 0.4 3.1 1.2 3.5 3.6 l0.7 3 20.2 0 20.3 0 0.6 -3z m335.6 -66 l0 -7 3.5 0 3.5 0 0 -10 0 -10 3 0 3 0 0 -10.5 0 -10.5 -3 0 -3 0 0 -17 0 -17 -3.5 0 -3.5 0 0 -7 0 -7 -3.5 0 -3.5 0 0 -6.5 0 -6.5 -3.5 0 -3.5 0 0 10 0 10 3.5 0 3.5 0 0 20.5 0 20.5 3.5 0 3.5 0 0 10.5 0 10.5 -3.5 0 -3.5 0 0 17 0 17 3.5 0 3.5 0 0 -7z m-446 -41 l0 -27 -3.5 0 -3.5 0 0 27 0 27 3.5 0 3.5 0 0 -27z m82 17.5 l0 -3.5 14 0 14 0 0 -3.5 0 -3.5 10 0 10 0 0 -3.5 0 -3.5 14 0 14 0 0 -3.5 0 -3.5 27.5 0 c26.5 0 27.5 -0.1 27.5 -1.9 0 -3.5 2.7 -5.1 8.8 -5.1 8.2 0 10.2 0.8 10.9 4.1 l0.6 2.9 27.3 0 27.4 0 0 3.5 0 3.5 10.5 0 10.5 0 0 3.5 0 3.5 13.5 0 13.5 0 0 3.5 0 3.5 14 0 14 0 0 3.5 0 3.5 20.5 0 20.5 0 0 -31 0 -31 -3.5 0 -3.5 0 0 -20.5 0 -20.5 -3.5 0 -3.5 0 0 -10.5 0 -10.5 -3.5 0 -3.5 0 0 -6.5 c0 -5.8 -0.2 -6.5 -1.9 -6.5 -2.5 0 -5.1 -2.6 -5.1 -5.1 0 -1.8 1 -1.9 31 -1.9 l31 0 0 -3.5 0 -3.5 13.4 0 13.4 0 0.6 -3 c0.4 -2.4 1.2 -3.2 3.6 -3.6 2.6 -0.6 3 -1.1 3 -4 l0 -3.4 6.9 0 c6.8 0 6.9 0 7.5 -3 0.4 -2.4 1.2 -3.2 3.6 -3.6 3 -0.6 3 -0.7 3 -7 l0 -6.4 3.5 0 3.5 0 0 -21 0 -21 3 0 3 0 0 -30.5 0 -30.5 3.5 0 c3.3 0 3.5 -0.2 3.5 -3.5 0 -3.3 -0.2 -3.5 -3.5 -3.5 -3.3 0 -3.5 -0.2 -3.5 -3.5 0 -3.3 0.2 -3.5 3.5 -3.5 3.3 0 3.5 -0.2 3.5 -3.5 l0 -3.5 -6.4 0 c-6.3 0 -6.4 0 -7 3 -0.4 2.4 -1.2 3.2 -3.5 3.6 -2.2 0.5 -3 1.3 -3.5 3.5 -0.4 2.2 -1.3 3.1 -3.5 3.5 -2.2 0.5 -3 1.3 -3.5 3.5 -0.4 2.2 -1.3 3.1 -3.5 3.5 -2.2 0.5 -3 1.3 -3.5 3.5 -0.4 2.3 -1.2 3.1 -3.6 3.5 -2.5 0.5 -3 1.1 -3 3.5 l0 2.9 -6.8 0 -6.8 0 -0.9 3.3 c-0.7 2.1 -1.7 3.3 -3.1 3.5 -1.5 0.2 -2.4 1.2 -2.8 3.3 -0.4 2.2 -1.2 3.1 -3.5 3.5 -2.2 0.5 -3 1.3 -3.5 3.5 -0.4 2.2 -1.3 3.1 -3.5 3.5 -2.2 0.5 -3 1.3 -3.5 3.5 -0.4 2.2 -1.3 3.1 -3.5 3.5 -2.2 0.5 -3 1.3 -3.5 3.5 -0.4 2.2 -1.3 3.1 -3.5 3.5 -2.2 0.5 -3 1.3 -3.5 3.5 -0.4 2.2 -1.3 3.1 -3.4 3.5 -1.9 0.4 -3.2 1.5 -3.9 3.5 -0.8 1.9 -1.8 2.9 -3.2 2.9 -1.7 0 -2.1 0.6 -2.1 3.5 l0 3.5 -6.9 0 c-6.8 0 -6.9 0 -7.5 3 -0.4 2.4 -1.2 3.2 -3.6 3.6 -2.6 0.6 -3 1.1 -3 4 l0 3.4 -7 0 -7 0 0 -3.4 c0 -2.9 -0.4 -3.4 -3 -4 -2.4 -0.4 -3.2 -1.2 -3.6 -3.6 -0.5 -2.5 -1.1 -3 -3.5 -3 -2.6 0 -2.9 -0.3 -2.9 -3.5 l0 -3.5 -5.1 0 c-5.9 0 -8.9 -1.3 -8.9 -3.9 0 -1.3 -1 -2 -3 -2.5 -2.4 -0.4 -3.2 -1.2 -3.6 -3.5 -0.5 -2.2 -1.3 -3 -3.5 -3.5 -2.2 -0.4 -3.1 -1.3 -3.5 -3.5 -0.5 -2.2 -1.3 -3 -3.5 -3.5 -2.2 -0.4 -3.1 -1.3 -3.5 -3.5 -0.5 -2.2 -1.3 -3 -3.5 -3.5 -2.3 -0.4 -3.1 -1.2 -3.5 -3.6 -0.5 -2.5 -1.1 -3 -3.5 -3 -2.6 0 -2.9 -0.3 -2.9 -3.5 l0 -3.5 -30.9 0 -30.8 0 -0.7 3 c-0.4 2.4 -1.2 3.2 -3.6 3.6 -2.6 0.6 -3 1.1 -3 4 l0 3.4 -6.9 0 c-6.8 0 -6.9 0 -7.5 3 -0.4 2.3 -1.2 3.2 -3.4 3.6 -2.1 0.4 -3.1 1.4 -3.8 3.7 -1.2 4.1 -3.6 4.1 -4.9 0 l-0.9 -3.3 -6.8 0 -6.8 0 0 -3.4 c0 -2.9 -0.4 -3.4 -3 -4 -2.4 -0.4 -3.2 -1.2 -3.6 -3.5 -0.5 -2.2 -1.3 -3 -3.5 -3.5 -2.3 -0.4 -3.1 -1.2 -3.5 -3.6 l-0.6 -3 -30.7 0 -30.7 0 -0.9 3.3 c-0.7 2.1 -1.7 3.3 -3.1 3.5 -1.5 0.2 -2.4 1.2 -2.8 3.3 -0.4 2.2 -1.2 3.1 -3.5 3.5 -2.2 0.5 -3 1.3 -3.5 3.5 -0.4 2.3 -1.2 3.1 -3.6 3.5 -2.6 0.6 -3 1.1 -3 4 l0 3.4 -6.9 0 c-6.8 0 -6.9 0 -7.5 3 -0.4 2.4 -1.2 3.2 -3.5 3.6 -2.1 0.4 -3.1 1.3 -3.3 2.8 -0.2 1.4 -1.4 2.4 -3.4 3 -2.2 0.7 -3.3 1.8 -4 4 -0.6 2 -1.6 3.2 -3 3.4 -1.5 0.2 -2.4 1.2 -2.8 3.3 -0.4 2.3 -1.2 3.1 -3.6 3.5 -2.6 0.6 -3 1.1 -3 4 l0 3.4 -10.5 0 -10.5 0 0 -3.4 c0 -2.9 -0.4 -3.4 -3 -4 -2.4 -0.4 -3.2 -1.2 -3.6 -3.5 -0.5 -2.2 -1.3 -3 -3.5 -3.5 -2.3 -0.4 -3.1 -1.2 -3.5 -3.6 -0.4 -1.9 -1.3 -3 -2.3 -3 -2.2 0 -4.1 -1.9 -4.1 -4.1 0 -1 -1.1 -1.9 -3 -2.3 -2.4 -0.4 -3.2 -1.2 -3.6 -3.5 -0.5 -2.2 -1.3 -3 -3.5 -3.5 -2.3 -0.4 -3.1 -1.2 -3.5 -3.6 -0.6 -3 -0.7 -3 -7.5 -3 l-6.9 0 0 -3.4 c0 -2.9 -0.4 -3.4 -3 -4 -2.4 -0.4 -3.2 -1.2 -3.6 -3.5 -0.5 -2.2 -1.3 -3 -3.5 -3.5 -2.3 -0.4 -3.1 -1.3 -3.5 -3.5 -0.4 -2.1 -1.3 -3.1 -2.8 -3.3 -1.4 -0.2 -2.4 -1.4 -3 -3.4 -0.7 -2.2 -1.8 -3.3 -4 -4 -2 -0.6 -3.2 -1.6 -3.4 -3 -0.2 -1.5 -1.2 -2.4 -3.3 -2.8 -2.2 -0.4 -3.1 -1.2 -3.5 -3.5 -0.5 -2.2 -1.3 -3 -3.5 -3.5 -2.2 -0.4 -3.1 -1.3 -3.5 -3.5 -0.5 -2.2 -1.3 -3 -3.5 -3.5 -2.2 -0.4 -3.1 -1.3 -3.5 -3.5 -0.5 -2.2 -1.3 -3 -3.5 -3.5 -2.3 -0.4 -3.1 -1.2 -3.5 -3.6 -0.6 -3 -0.7 -3 -7 -3 l-6.4 0 0 17 0 17 3 0 3 0 0 27.5 0 27.5 3.5 0 3.5 0 0 20.4 0 20.4 3 0.6 c2.4 0.4 3.2 1.2 3.6 3.5 0.5 2.2 1.3 3 3.5 3.5 2.2 0.4 3.1 1.3 3.5 3.5 0.5 2.2 1.3 3 3.5 3.5 2.3 0.4 3.1 1.2 3.5 3.6 0.6 3 0.7 3 7.5 3 l6.9 0 0 3.5 0 3.5 13.5 0 13.5 0 0 3.5 0 3.5 27.5 0 27.5 0 0 10 0 10 -3.5 0 -3.5 0 0 7 0 7 -3.5 0 -3.5 0 0 13.5 0 13.5 -3.5 0 -3.5 0 0 41.5 0 41.5 20.5 0 20.5 0 0 -3.5z m419 -48.5 l0 -17 -3.5 0 -3.5 0 0 17 0 17 3.5 0 3.5 0 0 -17z m-549 -12.2 c0 -2 -0.5 -2.3 -3.5 -2.3 -3 0 -3.5 0.3 -3.5 2.3 0 1.9 0.5 2.2 3.5 2.2 3 0 3.5 -0.3 3.5 -2.2z m0 -8.3 c0 -3.3 -0.2 -3.5 -3.5 -3.5 -3.3 0 -3.5 0.2 -3.5 3.5 0 3.3 0.2 3.5 3.5 3.5 3.3 0 3.5 -0.2 3.5 -3.5z m-55 -137 c0 -3.2 -0.2 -3.5 -3 -3.5 -2.8 0 -3 0.3 -3 3.5 0 3.2 0.2 3.5 3 3.5 2.8 0 3 -0.3 3 -3.5z m-34 -134 l0 -27.5 3.5 0 c3.2 0 3.5 -0.2 3.5 -3 0 -2.8 -0.3 -3 -3.5 -3 -3.2 0 -3.5 0.2 -3.5 3 0 2.8 -0.3 3 -3.5 3 -3.3 0 -3.5 0.2 -3.5 3.5 0 3.3 -0.2 3.5 -3.5 3.5 l-3.5 0 0 24 0 24 7 0 7 0 0 -27.5z m727 21 l0 -6.5 3.5 0 3.5 0 0 -14 0 -14 -3.5 0 -3.5 0 0 -7 0 -7 -3.5 0 c-3.2 0 -3.5 -0.2 -3.5 -3 l0 -3 -7 0 -7 0 0 3 c0 2.8 0.3 3 3.5 3 3.3 0 3.5 0.2 3.5 3.5 0 3.3 0.2 3.5 3.5 3.5 l3.5 0 0 14 0 14 -3.5 0 c-3.3 0 -3.5 0.2 -3.5 3.5 0 3.3 0.2 3.5 3.5 3.5 3.2 0 3.5 0.2 3.5 3 0 2.8 -0.3 3 -3.5 3 -3.3 0 -3.5 0.2 -3.5 3.5 l0 3.5 7 0 7 0 0 -6.5z m-370 -2.4 c0 -1 0.7 -2.4 1.5 -3.1 1.9 -1.6 4.5 0.3 4.5 3.1 0 1.9 3.8 1.9 144 1.9 l144 0 0 -30.5 0 -30.5 -3.5 0 -3.5 0 0 -6.9 c0 -6.5 -0.2 -7 -2.2 -7.3 -1.6 -0.2 -2.6 -1.3 -3.2 -3.5 -0.7 -2.3 -1.7 -3.3 -3.8 -3.7 -2.1 -0.4 -3 -1.3 -3.4 -3.5 -0.5 -2.2 -1.3 -3 -3.5 -3.5 -2.3 -0.4 -3.1 -1.2 -3.5 -3.6 l-0.6 -3 -30.9 0 -30.9 0 0 3.5 0 3.5 -10 0 -10 0 0 -3.5 0 -3.5 6.5 0 6.5 0 0 -6.5 0 -6.5 3.5 0 c3.3 0 3.5 -0.2 3.5 -3.5 l0 -3.5 -10 0 -10 0 0 3.5 0 3.5 -14 0 c-13.2 0 -14 0.1 -14 1.9 0 2.6 -2.7 5.2 -4.6 4.4 -0.8 -0.3 -1.8 -1.8 -2.1 -3.4 -0.5 -2.8 -0.7 -2.9 -6.9 -2.9 l-6.4 0 0 -3.5 c0 -3.3 -0.2 -3.5 -3.5 -3.5 -3.3 0 -3.5 0.2 -3.5 3.5 l0 3.5 -14 0 -14 0 0 3.5 0 3.5 -10 0 -10 0 0 3 0 3 -7 0 -7 0 0 3.5 0 3.5 -10 0 -10 0 0 3.5 0 3.5 -6.9 0 c-6.8 0 -6.9 0 -7.5 3 -0.4 2.4 -1.2 3.2 -3.6 3.6 -2.6 0.6 -3 1.1 -3 4 l0 3.4 -6.9 0 c-6.8 0 -6.9 0 -7.5 3 -0.4 2.3 -1.2 3.2 -3.4 3.6 -2.1 0.4 -3.1 1.4 -3.8 3.7 -1.2 4.1 -3.6 4.1 -4.9 0 -0.9 -3.2 -1.1 -3.3 -6.1 -3.3 -5.6 0 -8.4 -1.7 -8.4 -4.9 0 -1.3 -1 -2 -3 -2.5 -2.4 -0.4 -3.2 -1.2 -3.6 -3.5 -0.5 -2.2 -1.3 -3 -3.5 -3.5 -2.3 -0.4 -3.1 -1.2 -3.5 -3.6 -0.6 -3 -0.7 -3 -7.5 -3 l-6.9 0 0 -3.5 0 -3.5 -10 0 -10 0 0 -3.5 0 -3.5 -7 0 -7 0 0 -3 0 -3 -10 0 -10 0 0 -3.5 0 -3.5 -14 0 -14 0 0 -3.5 c0 -3.3 -0.2 -3.5 -3.5 -3.5 -3.3 0 -3.5 0.2 -3.5 3.5 l0 3.5 -6.5 0 -6.5 0 0 3.5 0 3.5 -7 0 -7 0 0 -3.5 0 -3.5 -10.5 0 -10.5 0 0 -3.5 0 -3.5 -10 0 -10 0 0 6.8 0 6.8 3.3 0.9 c2.2 0.7 3.3 1.7 3.5 3.3 0.2 1.2 1 2.2 1.7 2.2 2 0 4.5 2.8 4.5 5.1 0 1.7 -0.7 1.9 -6.5 1.9 l-6.5 0 0 -3.5 0 -3.5 -34.4 0 -34.3 0 -0.7 3 c-0.4 2.4 -1.2 3.2 -3.5 3.6 -2.2 0.5 -3 1.3 -3.5 3.5 -0.4 2.3 -1.2 3.1 -3.6 3.5 l-3 0.7 0 10.3 0 10.4 -3 0 -3 0 0 30.5 0 30.5 144 0 c140.2 0 144 0 144 -1.9z m377 -0.6 c0 -2.8 -0.3 -2.9 -3.1 -1.5 -2.8 1.5 -2.4 4 0.6 4 2 0 2.5 -0.5 2.5 -2.5z m-720 -48.5 c0 -2.2 -0.5 -3 -1.7 -3 -1.3 0 -1.8 0.8 -1.8 3 0 2.2 0.5 3 1.8 3 1.2 0 1.7 -0.8 1.7 -3z"/>
  <path d="M1001.8 964.3 l-3.8 -0.4 0 -41.5 0 -41.4 10 0 10 0 0 41.5 c0 39.8 -0.1 41.5 -1.9 41.5 -1 0 -3.8 0.2 -6.2 0.4 -2.4 0.2 -6.1 0.2 -8.1 -0.1z"/>
  <path d="M1033.5 852.4 c-0.8 -0.9 -1.5 -2.4 -1.5 -3.5 0 -1.5 -0.7 -1.9 -3.5 -1.9 l-3.5 0 0 -17 0 -17 3.5 0 3.5 0 0 -14 0 -14 3.4 0 c2.8 0 3.5 -0.4 3.8 -2.2 0.2 -1.6 1.3 -2.6 3.6 -3.3 2.8 -0.8 3.2 -1.4 3.2 -4.2 l0 -3.3 6.5 0 6.5 0 0 -3.5 0 -3.5 14 0 14 0 0 3.5 0 3.5 7 0 7 0 0 6.5 0 6.5 3 0 3 0 0 7 0 7 -3 0 -3 0 0 7 0 7 -7 0 c-6.2 0 -7 0.2 -7 1.9 0 3.5 -2.7 5.1 -8.6 5.1 l-5.4 0 0 3.5 c0 3.3 -0.2 3.5 -3.4 3.5 -2.8 0 -3.5 0.4 -3.8 2.3 -0.2 1.5 -1.3 2.5 -3.5 3.2 -2.9 0.8 -3.3 1.4 -3.3 4.2 l0 3.3 -6.4 0 c-6.3 0 -6.4 0 -7 3 -0.4 2.4 -1.2 3.2 -3.5 3.6 -2.2 0.5 -3 1.3 -3.4 3.4 -0.7 3.3 -3.1 4.5 -5.2 2.4z"/>
  <path d="M970 843.5 l0 -3.5 -6.5 0 -6.5 0 0 -3.3 c0 -2.8 -0.4 -3.4 -3.2 -4.2 -2.3 -0.7 -3.4 -1.7 -3.6 -3.2 -0.3 -2.1 -0.8 -2.3 -7.3 -2.3 l-6.9 0 0 -3.5 0 -3.5 -7 0 -7 0 0 -3.4 c0 -2.9 -0.4 -3.4 -3 -4 -2.4 -0.4 -3.2 -1.2 -3.6 -3.6 -0.5 -2.5 -1.1 -3 -3.5 -3 l-2.9 0 0 -13.5 0 -13.5 3 0 c2.8 0 3 -0.3 3 -3.5 l0 -3.5 7 0 7 0 0 -3.5 0 -3.5 14 0 14 0 0 3.5 0 3.5 6.5 0 6.5 0 0 3.3 c0 2.8 0.4 3.4 3.3 4.2 2.2 0.7 3.3 1.7 3.5 3.3 0.3 1.8 1 2.2 3.8 2.2 l3.4 0 0 31 0 31 -7 0 -7 0 0 -3.5z"/>
  <path d="M1005 802.5 l0 -17.5 3 0 3 0 0 17.5 0 17.5 -3 0 -3 0 0 -17.5z"/>
  <path d="M1006.1 427.1 c-0.7 -1.3 -1.1 -18 -1.1 -50.5 0 -47.9 0 -48.6 2 -48.6 1.8 0 2 -0.7 2 -5.5 l0 -5.5 4.4 0 4.4 0 0.8 -9 c0.7 -9 0.7 -9 3.4 -9 2.4 0 2.8 -0.5 3.4 -3.7 0.3 -2.1 0.6 -5.3 0.6 -7 0 -3 0.3 -3.3 3 -3.3 l3 0 0 -10.5 0 -10.5 3.5 0 3.5 0 0 -6.5 0 -6.5 3.5 0 3.5 0 0 -10.5 0 -10.5 3.5 0 3.5 0 0 -31 0 -31 -3.5 0 -3.5 0 0 -13.5 0 -13.5 -3.5 0 -3.5 0 0 -10.5 0 -10.5 -3.5 0 -3.5 0 0 -6.5 0 -6.5 -3.5 0 -3.5 0 0 -7 c0 -6.2 -0.2 -7 -1.9 -7 -2.5 0 -5.1 -2.6 -5.1 -5.1 0 -1.7 0.8 -1.9 7 -1.9 l7 0 0 3.5 0 3.5 7 0 7 0 0 3.5 0 3.5 10 0 10 0 0 3.5 0 3.5 7 0 7 0 0 3.3 c0 2.8 0.4 3.4 3.3 4.2 2.2 0.7 3.3 1.7 3.5 3.3 0.3 2 0.8 2.2 7.3 2.2 l6.9 0 0 3.4 c0 2.8 0.4 3.5 2.3 3.8 1.5 0.2 2.5 1.3 3.2 3.6 0.8 2.8 1.4 3.2 4.2 3.2 3.1 0 3.3 0.2 3.3 3.5 l0 3.5 5.4 0 c7.1 0 8.6 1.5 8.6 8.6 l0 5.4 5.4 0 c5.7 0 8.6 1.6 8.6 4.9 0 1 1.2 2 3.3 2.6 3.1 1 3.2 1.2 3.5 6.8 0.3 5.6 0.4 5.7 3.2 5.7 2.7 0 3 0.3 3 3.4 0 2.9 0.4 3.4 3 4 2.4 0.4 3.2 1.2 3.6 3.5 0.5 2.2 1.3 3 3.5 3.5 2.2 0.4 3.1 1.3 3.5 3.5 0.5 2.2 1.3 3 3.5 3.5 2.3 0.4 3.1 1.2 3.5 3.6 0.6 2.6 1.1 3 4 3 l3.4 0 0 6.4 c0 6.3 0 6.4 3 7 2.4 0.4 3.2 1.2 3.6 3.6 0.6 2.6 1.1 3 4 3 l3.4 0 0 6.9 c0 6.5 0.2 7 2.3 7.3 1.5 0.2 2.5 1.3 3.2 3.6 0.8 2.8 1.4 3.2 4.2 3.2 l3.3 0 0 7 0 7 3.5 0 3.5 0 0 10 0 10 3.5 0 3.5 0 0 7 0 7 3.5 0 3.5 0 0 10 0 10 3.5 0 3.5 0 0 10.5 0 10.5 3 0 3 0 0 13.5 0 13.5 3.5 0 3.5 0 0 17.5 0 17.5 -3.5 0 c-3.3 0 -3.5 0.2 -3.5 3.5 l0 3.5 -17 0 -17 0 0 3 0 3 -20.5 0 -20.5 0 0 3.5 0 3.5 -31 0 -31 0 0 3.5 0 3.5 -47.8 0 -47.8 0 -0.9 3.2 c-1.2 3.8 -3 4.6 -4.4 1.9z"/>
  <path d="M902 418.6 l0 -3.6 -31 0 -31 0 0 -3.5 0 -3.5 -20.5 0 -20.5 0 0 -3 0 -3 -14 0 -14 0 0 -3.5 0 -3.5 -6.5 0 -6.5 0 0 -7 0 -7 3.5 0 3.5 0 0 -17 0 -17 3 0 3 0 0 -10.5 0 -10.5 3.5 0 3.5 0 0 -10 0 -10 3.5 0 3.5 0 0 -10.5 0 -10.5 3.5 0 3.5 0 0 -7 0 -7 3.5 0 3.5 0 0 -6.5 0 -6.5 3.5 0 3.5 0 0 -7 0 -7 3.5 0 3.5 0 0 -7 0 -7 2.9 0 c2.4 0 3 -0.5 3.5 -3 0.4 -2.4 1.2 -3.2 3.5 -3.6 2.2 -0.5 3 -1.3 3.5 -3.5 0.4 -2.3 1.2 -3.1 3.6 -3.5 3 -0.6 3 -0.7 3 -7 l0 -6.4 3.4 0 c2.9 0 3.4 -0.4 4 -3 0.4 -2.4 1.2 -3.2 3.5 -3.6 2.2 -0.5 3 -1.3 3.5 -3.5 0.4 -2.2 1.3 -3.1 3.5 -3.5 2.2 -0.5 3 -1.3 3.5 -3.5 0.4 -2.2 1.3 -3.1 3.4 -3.5 2.1 -0.4 3.1 -1.4 3.8 -3.7 0.6 -2.1 1.6 -3.3 3 -3.5 1.5 -0.2 2.4 -1.2 2.8 -3.3 0.4 -2.3 1.2 -3.1 3.5 -3.5 2.1 -0.4 3.1 -1.3 3.3 -2.8 0.2 -1.4 1.4 -2.4 3.5 -3 2.3 -0.7 3.3 -1.7 3.7 -3.8 0.4 -2.1 1.3 -3 3.5 -3.4 2.2 -0.5 3 -1.3 3.5 -3.5 0.4 -2.2 1.3 -3.1 3.5 -3.5 2.2 -0.5 3 -1.3 3.5 -3.5 0.4 -2.3 1.2 -3.1 3.6 -3.5 2 -0.5 3 -1.2 3 -2.5 0 -3.2 2.8 -4.9 8.1 -4.9 l4.9 0 0 -3.5 c0 -3.3 0.2 -3.5 3.5 -3.5 2.8 0 3.5 -0.4 3.5 -1.9 0 -3.5 2.7 -5.1 8.6 -5.1 5.3 0 5.4 0 5.4 -3 0 -2.8 0.3 -3 3.5 -3 2.8 0 3.5 -0.4 3.5 -1.9 0 -3.5 2.7 -5.1 8.6 -5.1 l5.4 0 0 -3.5 0 -3.5 6.5 0 6.5 0 0 -3.5 0 -3.5 7 0 7 0 0 3.5 c0 3.3 0.2 3.5 3.5 3.5 l3.5 0 0 7 0 7 3.5 0 3.5 0 0 6.5 0 6.5 3.5 0 3.5 0 0 7 0 7 3 0 3 0 0 10.5 0 10.5 3.5 0 3.5 0 0 44.5 0 44.5 -3.5 0 -3.5 0 0 11.5 0 11.5 -3.5 0 -3.5 0 0 5.5 c0 5.4 -0.1 5.5 -2.9 5.5 -2.5 0 -3 0.5 -3.5 3.5 -0.6 3.1 -1.1 3.5 -3.6 3.5 l-3 0 0 7 0 7 -3.5 0 -3.5 0 0 6.5 0 6.5 -3.5 0 -3.5 0 0 7 0 7 -3.5 0 -3.5 0 0 17 0 17 -3.5 0 c-3.3 0 -3.5 0.2 -3.5 3.5 0 3.3 0.2 3.5 3.5 3.5 l3.5 0 0 17 0 17 3.5 0 3.5 0 0 7 0 7 -34 0 -34 0 0 -3.5 c0 -3.2 -0.3 -3.5 -2.8 -3.5 -2.6 0 -2.8 0.3 -2.4 2.9 0.2 1.6 -0.1 3.2 -0.7 3.5 -0.7 0.5 -1.1 -0.5 -1.1 -2.8z"/>
  <path d="M2081 367 l0 -7 -3.5 0 c-3.2 0 -3.5 -0.2 -3.5 -3 0 -2.8 -0.3 -3 -3.5 -3 l-3.5 0 0 -7 0 -7 -3.5 0 -3.5 0 0 -7 c0 -6.2 -0.2 -7 -1.9 -7 -3.5 0 -5.1 -2.7 -5.1 -8.6 0 -5.3 0 -5.4 -3 -5.4 l-3 0 0 -6.5 0 -6.5 -3.5 0 c-3.3 0 -3.5 -0.2 -3.5 -3.5 0 -2.8 -0.4 -3.5 -1.9 -3.5 -3.5 0 -5.1 -2.7 -5.1 -8.6 l0 -5.4 -3.5 0 c-3.3 0 -3.5 -0.2 -3.5 -3.5 0 -2.8 -0.4 -3.5 -1.9 -3.5 -3.4 0 -5.1 -2.8 -5.1 -8.1 l0 -4.9 -3.5 0 c-3.3 0 -3.5 -0.2 -3.5 -3.5 0 -2.8 -0.4 -3.5 -1.9 -3.5 -3.5 0 -5.1 -2.7 -5.1 -8.6 0 -5.3 0 -5.4 -3 -5.4 -2.8 0 -3 -0.3 -3 -3.5 0 -2.4 -0.5 -3.5 -1.5 -3.5 -0.9 0 -1.5 -0.9 -1.5 -2.1 0 -1.2 -0.8 -2.3 -2 -2.6 -3.2 -0.9 -2.3 -2.3 1.5 -2.3 3.3 0 3.5 0.2 3.5 3.5 0 3.2 0.2 3.5 3 3.5 2.8 0 3 0.3 3 3.4 0 1.9 0.5 3.8 1.1 4.2 0.6 0.3 0.9 1.9 0.7 3.5 -0.4 2.6 -0.2 2.9 2.4 2.9 2.5 0 2.8 0.3 2.8 3.5 0 3.3 0.2 3.5 3.5 3.5 3.3 0 3.5 0.2 3.5 3.3 0 2.8 0.4 3.4 3.3 4.2 3.1 1 3.2 1.2 3.5 6.8 l0.3 5.7 3.4 0 c3.3 0 3.5 0.2 3.5 3.5 0 2.8 0.4 3.5 1.9 3.5 3.5 0 5.1 2.7 5.1 8.6 l0 5.4 3.5 0 c3.3 0 3.5 0.2 3.5 3.5 0 2.8 0.4 3.5 2 3.5 2.6 0 4 2.9 4 8.4 0 4.6 0 4.6 3.5 4.6 l3.5 0 0 7 0 7 3.5 0 c3.3 0 3.5 0.2 3.5 3.5 0 2.8 0.4 3.5 1.9 3.5 3.5 0 5.1 2.7 5.1 8.6 l0 5.4 3.5 0 3.5 0 0 6.5 0 6.5 3.5 0 3.5 0 0 7 0 7 -3.5 0 -3.5 0 0 -7z"/>
  <path d="M0 245.4 c0 -0.8 0.9 -1.4 2 -1.4 1.8 0 2 -0.7 2 -5.4 0 -5.7 1.6 -8.6 4.9 -8.6 1 0 2 -1.2 2.6 -3.2 0.7 -2.3 1.7 -3.4 3.3 -3.6 1.9 -0.3 2.2 0.1 2.2 3.2 0 3.3 -0.2 3.6 -3 3.6 -2.9 0 -3 0.2 -3.1 4.8 0 2.6 -0.3 4.1 -0.6 3.5 -0.8 -2.1 -3.5 -1.6 -2.8 0.6 0.7 2.4 -0.4 5.1 -2.1 5.1 -0.8 0 -1.4 0.4 -1.4 0.9 0 0.5 -0.9 1.1 -2 1.4 -1.3 0.3 -2 0 -2 -0.9z"/>
  <path d="M1985 213 c0 -2.8 -0.3 -3 -3.5 -3 -3.1 0 -3.5 -0.3 -3.5 -2.7 0 -3.2 -2.1 -9.5 -3.5 -10.5 -0.5 -0.4 0 -0.8 1.3 -0.8 1.9 0 2.2 0.5 2.2 3.5 0 3.3 0.2 3.5 3.5 3.5 3.3 0 3.5 0.2 3.5 3.3 0 2.8 0.4 3.4 3.3 4.2 2.2 0.7 3.3 1.7 3.5 3.3 0.3 1.9 -0.1 2.2 -3.2 2.2 -3.3 0 -3.6 -0.2 -3.6 -3z"/>
  <path d="M25.8 208.7 c2.3 -1.3 5.2 -5.9 5.2 -8.2 0 -2 2.9 -4.5 5.1 -4.5 1.5 0 1.9 0.7 1.9 3.5 0 3.3 -0.2 3.5 -3.5 3.5 -3.3 0 -3.5 0.2 -3.5 3.5 0 3.4 -0.1 3.5 -3.7 3.5 -3.6 -0.1 -3.7 -0.1 -1.5 -1.3z"/>
  <path d="M38.5 190 c-0.4 -0.6 0.8 -1 2.9 -1 2 0 3.6 0.5 3.6 1 0 0.6 -1.3 1 -2.9 1 -1.7 0 -3.3 -0.4 -3.6 -1z"/>
  <path d="M1964 185.5 c0 -3.3 -0.2 -3.5 -3.5 -3.5 -3.3 0 -3.5 -0.2 -3.5 -3.5 0 -2.8 0.4 -3.5 1.9 -3.5 2.5 0 5.1 2.6 5.1 5.1 0 1 0.4 1.9 0.9 1.9 0.5 0 1.1 1.2 1.3 2.7 0.2 1.9 1 2.9 2.8 3.4 2.1 0.6 2 0.7 -1.2 0.8 -3.7 0.1 -3.8 0 -3.8 -3.4z"/>
  <path d="M53.3 174.3 c0.9 -0.2 2.5 -0.2 3.5 0 0.9 0.3 0.1 0.5 -1.8 0.5 -1.9 0 -2.7 -0.2 -1.7 -0.5z"/>
  <path d="M1951.7 170.3 c-1.5 -1.4 -0.6 -2.3 2.3 -2.3 3.2 0 4 1.4 1.4 2.4 -2 0.8 -2.9 0.8 -3.7 -0.1z"/>
  <path d="M1937.2 152 c0 -1.9 0.2 -2.7 0.5 -1.7 0.2 0.9 0.2 2.5 0 3.5 -0.3 0.9 -0.5 0.1 -0.5 -1.8z"/>
  <path d="M1930 147.1 c0 -1.3 3 -2.2 5.1 -1.6 3.1 1 2.1 2.5 -1.6 2.5 -1.9 0 -3.5 -0.4 -3.5 -0.9z"/>
  <path d="M1904.3 116.3 c-2.4 -0.9 -1.3 -2.3 1.7 -2.3 3.2 0 4 1.4 1.4 2.4 -0.9 0.3 -1.6 0.6 -1.7 0.5 -0.1 0 -0.8 -0.3 -1.4 -0.6z"/>
  <path d="M1005 15.5 l0 -15.5 3 0 3 0 0 15.5 0 15.5 -3 0 -3 0 0 -15.5z"/>
  <path d="M2079.5 9.5 c-0.3 -0.8 -0.7 -2.1 -0.9 -2.9 -0.3 -0.8 -1.5 -1.6 -2.8 -1.9 -1.5 -0.3 -1 -0.5 1.5 -0.6 3.6 -0.1 3.7 0 3.7 3.4 0 3.6 -0.7 4.6 -1.5 2z"/>
 </g>
</svg>